<svg width="92" height="20" viewBox="0 0 92 20" fill="none" xmlns="http://www.w3.org/2000/svg">
<g clip-path="url(#clip0_731_101)">
<path d="M47.5547 5.19336H47.7539V17.2344C47.7521 17.9672 47.4605 18.6694 46.9424 19.1877C46.4243 19.706 45.7221 19.9983 44.9893 20.0004H44.6562V8.08728C44.6578 7.31954 44.9636 6.58376 45.5068 6.04126C46.0501 5.49876 46.7869 5.19389 47.5547 5.19336Z" fill="#00B4FF"/>
<path d="M31.9688 0H32.169V11.3929L37.5313 6.02197C37.8005 5.7524 38.1203 5.53904 38.4727 5.39429C38.8251 5.24953 39.2031 5.17632 39.584 5.17883C39.965 5.18135 40.341 5.25955 40.6914 5.40894C41.0419 5.55832 41.3594 5.77585 41.625 6.04895L41.7676 6.19604L35.668 12.3051C35.5743 12.3987 35.4742 12.4855 35.3682 12.5649C35.5081 12.6627 35.6386 12.7729 35.7588 12.894L41.7657 18.91L41.5342 19.15C41.2805 19.411 40.9774 19.6188 40.6426 19.7616C40.3078 19.9044 39.948 19.9791 39.584 19.9816C39.2201 19.984 38.8591 19.9141 38.5225 19.7758C38.1859 19.6375 37.8802 19.4336 37.6231 19.176L32.168 13.712V17.1949C32.1699 17.9331 31.8805 18.6422 31.3623 19.1678C30.8442 19.6935 30.1395 19.9933 29.4014 20.002H29.0713V2.93896C29.0673 2.16536 29.37 1.42171 29.9131 0.87085C30.4563 0.319993 31.1952 0.00686858 31.9688 0Z" fill="#00B4FF"/>
<path d="M6.06035e-05 16.9753V16.7693L0.0352169 14.4553C0.0222571 14.1608 0.0384996 13.8657 0.084045 13.5743V13.4164H0.119201C0.271433 12.8121 0.61758 12.2746 1.10553 11.887C1.59348 11.4993 2.19631 11.283 2.8194 11.2714H9.27252C9.41503 11.2203 9.54036 11.1296 9.63287 11.0098C9.72539 10.89 9.78167 10.7461 9.79498 10.5953V8.77429C9.77568 8.66609 9.72417 8.56621 9.64752 8.48743C9.57088 8.40864 9.47293 8.35455 9.3653 8.33228H2.89264C2.51136 8.32915 2.13509 8.25073 1.78424 8.10144C1.43339 7.95215 1.11532 7.73497 0.848693 7.4624C0.582069 7.18983 0.372048 6.86724 0.230529 6.51318C0.0890105 6.15913 0.0182134 5.78055 0.0234981 5.39929V5.19336H10.2491C10.6355 5.22489 11.0115 5.33314 11.3555 5.51184C11.6996 5.69054 12.005 5.93602 12.253 6.23401C12.501 6.53199 12.6866 6.87643 12.7999 7.24719C12.9131 7.61796 12.9514 8.00763 12.9122 8.39331V19.9003H12.5811C12.2032 19.8993 11.8294 19.8203 11.4835 19.668C11.1376 19.5157 10.8273 19.2935 10.5714 19.0154C10.3013 19.3265 9.96638 19.5753 9.59088 19.7446C9.21538 19.914 8.80748 19.9998 8.39557 19.9963L2.87506 19.9434C2.23446 19.9305 1.61515 19.7086 1.11237 19.3114C0.609579 18.9142 0.250722 18.3635 0.0899044 17.7433H0.077209V17.6924C0.0198713 17.4577 -0.00832558 17.2169 -0.00677533 16.9753H6.06035e-05ZM9.79987 13.3663C9.53673 13.6837 9.20653 13.9389 8.83307 14.1135C8.4596 14.2882 8.05198 14.3779 7.63971 14.3763L3.78912 14.3663C3.71864 14.3614 3.64756 14.3713 3.58112 14.3954C3.51467 14.4194 3.45441 14.457 3.40338 14.5059C3.35235 14.5547 3.31211 14.6137 3.28522 14.6791C3.25832 14.7444 3.24529 14.8147 3.24713 14.8854L3.23639 16.4513C3.23639 16.9513 3.60383 16.8933 3.84283 16.8933H9.30963C9.4381 16.8905 9.56135 16.8384 9.6524 16.7477C9.74346 16.657 9.79558 16.5348 9.79889 16.4064L9.79987 13.3663Z" fill="#00B4FF"/>
<path d="M46.173 3.87522C47.1881 3.87522 48.011 3.05232 48.011 2.03722C48.011 1.02212 47.1881 0.199219 46.173 0.199219C45.1579 0.199219 44.335 1.02212 44.335 2.03722C44.335 3.05232 45.1579 3.87522 46.173 3.87522Z" fill="#00B4FF"/>
<path d="M16.4406 16.0552L22.4855 8.32019H17.8332C17.069 8.30781 16.341 7.99364 15.8078 7.44617C15.2745 6.89869 14.9797 6.1624 14.9875 5.39819V5.19824H25.2472C27.7182 5.19824 27.947 6.74225 26.547 8.53125L20.0294 16.8652L24.715 16.8462C25.4575 16.8615 26.1651 17.1651 26.6876 17.6927C27.2102 18.2204 27.5066 18.9306 27.5148 19.6732V20.0042H17.3898C16.0948 20.0042 15.5111 19.6402 15.2511 19.1882C14.7291 18.2752 15.5266 17.2222 16.4406 16.0552Z" fill="#00B4FF"/>
<path d="M64.4404 9.98047H57.4004C56.8662 9.98047 56.3533 10.1926 55.9756 10.5703C55.5979 10.948 55.3857 11.4604 55.3857 11.9945V17.9874C55.386 18.5214 55.5989 19.0334 55.9766 19.4109C56.3542 19.7884 56.8664 20.0005 57.4004 20.0005H64.4404C64.4406 19.7727 64.3957 19.547 64.3086 19.3365C64.2215 19.1261 64.0936 18.9348 63.9326 18.7737C63.7716 18.6126 63.5806 18.4848 63.3701 18.3976C63.1597 18.3104 62.9339 18.2655 62.7061 18.2655H58.167C57.9161 18.2655 57.6755 18.1658 57.498 17.9884C57.3206 17.811 57.2207 17.5704 57.2207 17.3195V12.7495C57.2207 12.6253 57.2454 12.5023 57.293 12.3876C57.3405 12.2729 57.4102 12.1687 57.498 12.0809C57.5859 11.9932 57.6899 11.9235 57.8047 11.8761C57.9195 11.8287 58.0428 11.8043 58.167 11.8044H62.7061C62.9339 11.8044 63.1597 11.7596 63.3701 11.6724C63.5806 11.5852 63.7716 11.4574 63.9326 11.2963C64.0936 11.1351 64.2215 10.9439 64.3086 10.7334C64.3957 10.5229 64.4406 10.2973 64.4404 10.0695V9.98047Z" fill="#00B4FF"/>
<path d="M73.6553 11.8715C73.8244 11.8715 73.9867 11.9385 74.1064 12.0579C74.2262 12.1773 74.2944 12.3393 74.2949 12.5084V17.4705C74.2944 17.6396 74.2262 17.8016 74.1064 17.921C73.9867 18.0404 73.8244 18.1074 73.6553 18.1074H68.4004C68.2313 18.1074 68.069 18.0404 67.9492 17.921C67.8294 17.8016 67.7622 17.6396 67.7617 17.4705V12.5084C67.7622 12.3393 67.8294 12.1773 67.9492 12.0579C68.069 11.9385 68.2313 11.8715 68.4004 11.8715H73.6553ZM73.6553 9.98047H68.4004C67.7297 9.98047 67.0866 10.2469 66.6123 10.7212C66.138 11.1955 65.8721 11.8388 65.8721 12.5095V17.4714C65.8721 18.1422 66.138 18.7855 66.6123 19.2598C67.0866 19.734 67.7297 20.0005 68.4004 20.0005H73.6553C74.3261 20.0005 74.9699 19.734 75.4443 19.2598C75.9188 18.7855 76.1853 18.1423 76.1855 17.4714V12.5095C76.1853 11.8387 75.9188 11.1953 75.4443 10.7211C74.9699 10.2468 74.3261 9.98047 73.6553 9.98047Z" fill="#00B4FF"/>
<path d="M78.5352 12.4614V19.9995H78.8281C79.2824 19.9995 79.7188 19.8189 80.04 19.4977C80.3613 19.1764 80.541 18.7408 80.541 18.2865V12.6134C80.5409 12.5071 80.5619 12.4019 80.6025 12.3037C80.6431 12.2055 80.7032 12.1163 80.7783 12.0411C80.8535 11.966 80.9428 11.9063 81.041 11.8657C81.1392 11.8251 81.2443 11.8043 81.3506 11.8044H83.627C83.7333 11.8043 83.8392 11.8251 83.9375 11.8657C84.0358 11.9063 84.1249 11.9659 84.2002 12.041C84.2755 12.1161 84.3351 12.2054 84.376 12.3036C84.4168 12.4018 84.4383 12.507 84.4385 12.6134V18.2865C84.4383 18.5115 84.4823 18.7342 84.5684 18.9421C84.6544 19.15 84.7804 19.339 84.9395 19.498C85.0985 19.6571 85.2882 19.7833 85.4961 19.8694C85.704 19.9554 85.9264 19.9996 86.1514 19.9995H86.5576V12.5704C86.5577 12.4641 86.5783 12.3588 86.6191 12.2606C86.66 12.1624 86.7196 12.0732 86.7949 11.998C86.8702 11.9229 86.9603 11.8633 87.0586 11.8228C87.1569 11.7822 87.2618 11.7613 87.3682 11.7615H89.3584C89.4647 11.7613 89.5698 11.7821 89.668 11.8228C89.7662 11.8634 89.8555 11.923 89.9307 11.9982C90.0058 12.0733 90.0658 12.1625 90.1064 12.2607C90.1471 12.359 90.1671 12.4642 90.167 12.5704V18.2865C90.167 18.7408 90.3477 19.1764 90.6689 19.4977C90.9902 19.8189 91.4265 19.9995 91.8809 19.9995H92.001V12.4614C92.0011 12.1357 91.9371 11.8131 91.8125 11.5121C91.6879 11.2111 91.5057 10.9375 91.2754 10.7072C91.0451 10.4768 90.7717 10.294 90.4707 10.1693C90.1698 10.0446 89.8472 9.98047 89.5215 9.98047H86.5703C86.3411 9.98017 86.1196 10.0634 85.9473 10.2145L85.584 10.5305L85.2236 10.2145C85.0511 10.0637 84.8297 9.98053 84.6006 9.98047H81.0186C80.6926 9.98021 80.3696 10.0441 80.0684 10.1687C79.7671 10.2933 79.4933 10.476 79.2627 10.7064C79.0321 10.9368 78.8494 11.2105 78.7246 11.5116C78.5998 11.8127 78.5352 12.1354 78.5352 12.4614Z" fill="#00B4FF"/>
<path d="M51.6849 19.985C52.4288 19.985 53.0319 19.3819 53.0319 18.638C53.0319 17.8941 52.4288 17.291 51.6849 17.291C50.941 17.291 50.3379 17.8941 50.3379 18.638C50.3379 19.3819 50.941 19.985 51.6849 19.985Z" fill="#00B4FF"/>
</g>
<defs>
<clipPath id="clip0_731_101">
<rect width="92" height="20" fill="white"/>
</clipPath>
</defs>
</svg>
