<svg width="520" height="288" viewBox="0 0 520 288" fill="none" xmlns="http://www.w3.org/2000/svg">
<g clip-path="url(#clip0_7_93)">
<path d="M1.24561 253.944H519.196" stroke="#1C79F6" stroke-linecap="round" stroke-linejoin="round"/>
<path d="M82.7554 23.4077C82.7554 23.4077 76.3601 15.3184 70.3921 15.3184C64.4241 15.3184 63.5694 22.1282 61.8601 22.9812C60.1508 23.8342 52.9081 19.1498 49.9241 20.4293C46.9401 21.7089 46.1144 26.3861 46.1144 26.3861C46.1144 26.3861 40.5665 23.4077 38.0098 24.6873C35.4531 25.9668 32.8964 29.791 32.8964 29.791L26.0737 32.7694H97.6827C97.6827 32.7694 97.6827 24.6873 92.9894 23.4077C88.2961 22.1282 87.4487 28.9163 82.7554 23.4077Z" stroke="#1C79F6" stroke-miterlimit="10"/>
<path d="M261.557 48.2252C261.557 48.2252 257.718 43.3745 254.133 43.3745C250.548 43.3745 250.034 47.459 249.012 47.9722C247.991 48.4855 243.631 45.6734 241.842 46.4396C240.053 47.2059 239.539 50.0542 239.539 50.0542C239.539 50.0542 236.207 48.2614 234.672 49.0277C233.136 49.7939 231.601 52.1 231.601 52.1L227.501 53.8856H270.523C270.523 53.8856 270.523 49.0277 267.706 48.2614C264.889 47.4951 264.374 51.5578 261.557 48.2252Z" stroke="#1C79F6" stroke-miterlimit="10"/>
<path d="M366.628 28.4463C366.628 28.4463 362.789 23.5884 359.204 23.5884C355.619 23.5884 355.104 27.68 354.083 28.1861C353.062 28.6921 348.702 25.8872 346.913 26.6535C345.124 27.4198 344.61 30.2681 344.61 30.2681C344.61 30.2681 341.278 28.4825 339.743 29.2488C338.207 30.015 336.672 32.3139 336.672 32.3139L332.572 34.0995H375.594C375.594 34.0995 375.594 29.2488 372.777 28.4825C369.959 27.7162 369.445 31.7645 366.628 28.4463Z" stroke="#1C79F6" stroke-miterlimit="10"/>
<path d="M18.8672 190.226H41.8122V123.69H62.0339V92.6048H100.283V154.233H110.118V34.6997H152.192V87.1468H178.418V41.8854H223.221V143.866H284.422V82.925H324.395V144.416H348.897V151.507H364.201V103.954H374.58V151.507H381.685V101.33H393.158V149.324H407.368V68.6042H433.043V121.507H447.797V42.4276H483.866V202.227" stroke="#1C79F6" stroke-miterlimit="10" stroke-linecap="round"/>
<path d="M52.1983 134.599H47.8237V140.049H52.1983V134.599Z" stroke="#1C79F6" stroke-miterlimit="10" stroke-linecap="round"/>
<path d="M59.3033 134.599H54.9287V140.049H59.3033V134.599Z" stroke="#1C79F6" stroke-miterlimit="10" stroke-linecap="round"/>
<path d="M66.4088 134.599H62.0342V140.049H66.4088V134.599Z" stroke="#1C79F6" stroke-miterlimit="10" stroke-linecap="round"/>
<path d="M73.5138 134.599H69.1392V140.049H73.5138V134.599Z" stroke="#1C79F6" stroke-miterlimit="10" stroke-linecap="round"/>
<path d="M80.6114 134.599H76.2368V140.049H80.6114V134.599Z" stroke="#1C79F6" stroke-miterlimit="10" stroke-linecap="round"/>
<path d="M87.7169 134.599H83.3423V140.049H87.7169V134.599Z" stroke="#1C79F6" stroke-miterlimit="10" stroke-linecap="round"/>
<path d="M121.048 94.2388H116.673V99.6895H121.048V94.2388Z" stroke="#1C79F6" stroke-miterlimit="10" stroke-linecap="round"/>
<path d="M128.153 94.2388H123.778V99.6895H128.153V94.2388Z" stroke="#1C79F6" stroke-miterlimit="10" stroke-linecap="round"/>
<path d="M135.258 94.2388H130.883V99.6895H135.258V94.2388Z" stroke="#1C79F6" stroke-miterlimit="10" stroke-linecap="round"/>
<path d="M142.356 94.2388H137.981V99.6895H142.356V94.2388Z" stroke="#1C79F6" stroke-miterlimit="10" stroke-linecap="round"/>
<path d="M121.048 84.4214H116.673V89.8721H121.048V84.4214Z" stroke="#1C79F6" stroke-miterlimit="10" stroke-linecap="round"/>
<path d="M128.153 84.4214H123.778V89.8721H128.153V84.4214Z" stroke="#1C79F6" stroke-miterlimit="10" stroke-linecap="round"/>
<path d="M135.258 84.4214H130.883V89.8721H135.258V84.4214Z" stroke="#1C79F6" stroke-miterlimit="10" stroke-linecap="round"/>
<path d="M142.356 84.4214H137.981V89.8721H142.356V84.4214Z" stroke="#1C79F6" stroke-miterlimit="10" stroke-linecap="round"/>
<path d="M121.048 74.6045H116.673V80.0552H121.048V74.6045Z" stroke="#1C79F6" stroke-miterlimit="10" stroke-linecap="round"/>
<path d="M128.153 74.6045H123.778V80.0552H128.153V74.6045Z" stroke="#1C79F6" stroke-miterlimit="10" stroke-linecap="round"/>
<path d="M135.258 74.6045H130.883V80.0552H135.258V74.6045Z" stroke="#1C79F6" stroke-miterlimit="10" stroke-linecap="round"/>
<path d="M142.356 74.6045H137.981V80.0552H142.356V74.6045Z" stroke="#1C79F6" stroke-miterlimit="10" stroke-linecap="round"/>
<path d="M121.048 64.7871H116.673V70.2378H121.048V64.7871Z" stroke="#1C79F6" stroke-miterlimit="10" stroke-linecap="round"/>
<path d="M128.153 64.7871H123.778V70.2378H128.153V64.7871Z" stroke="#1C79F6" stroke-miterlimit="10" stroke-linecap="round"/>
<path d="M135.258 64.7871H130.883V70.2378H135.258V64.7871Z" stroke="#1C79F6" stroke-miterlimit="10" stroke-linecap="round"/>
<path d="M142.356 64.7871H137.981V70.2378H142.356V64.7871Z" stroke="#1C79F6" stroke-miterlimit="10" stroke-linecap="round"/>
<path d="M121.048 54.9702H116.673V60.421H121.048V54.9702Z" stroke="#1C79F6" stroke-miterlimit="10" stroke-linecap="round"/>
<path d="M128.153 54.9702H123.778V60.421H128.153V54.9702Z" stroke="#1C79F6" stroke-miterlimit="10" stroke-linecap="round"/>
<path d="M135.258 54.9702H130.883V60.421H135.258V54.9702Z" stroke="#1C79F6" stroke-miterlimit="10" stroke-linecap="round"/>
<path d="M142.356 54.9702H137.981V60.421H142.356V54.9702Z" stroke="#1C79F6" stroke-miterlimit="10" stroke-linecap="round"/>
<path d="M149.461 94.2388H145.086V99.6895H149.461V94.2388Z" stroke="#1C79F6" stroke-miterlimit="10" stroke-linecap="round"/>
<path d="M156.566 94.2388H152.191V99.6895H156.566V94.2388Z" stroke="#1C79F6" stroke-miterlimit="10" stroke-linecap="round"/>
<path d="M121.048 105.147H116.673V110.598H121.048V105.147Z" stroke="#1C79F6" stroke-miterlimit="10" stroke-linecap="round"/>
<path d="M128.153 105.147H123.778V110.598H128.153V105.147Z" stroke="#1C79F6" stroke-miterlimit="10" stroke-linecap="round"/>
<path d="M135.258 105.147H130.883V110.598H135.258V105.147Z" stroke="#1C79F6" stroke-miterlimit="10" stroke-linecap="round"/>
<path d="M142.356 105.147H137.981V110.598H142.356V105.147Z" stroke="#1C79F6" stroke-miterlimit="10" stroke-linecap="round"/>
<path d="M149.461 105.147H145.086V110.598H149.461V105.147Z" stroke="#1C79F6" stroke-miterlimit="10" stroke-linecap="round"/>
<path d="M156.566 105.147H152.191V110.598H156.566V105.147Z" stroke="#1C79F6" stroke-miterlimit="10" stroke-linecap="round"/>
<path d="M52.1983 146.049H47.8237V151.5H52.1983V146.049Z" stroke="#1C79F6" stroke-miterlimit="10" stroke-linecap="round"/>
<path d="M59.3033 146.049H54.9287V151.5H59.3033V146.049Z" stroke="#1C79F6" stroke-miterlimit="10" stroke-linecap="round"/>
<path d="M66.4088 146.049H62.0342V151.5H66.4088V146.049Z" stroke="#1C79F6" stroke-miterlimit="10" stroke-linecap="round"/>
<path d="M73.5138 146.049H69.1392V151.5H73.5138V146.049Z" stroke="#1C79F6" stroke-miterlimit="10" stroke-linecap="round"/>
<path d="M80.6114 146.049H76.2368V151.5H80.6114V146.049Z" stroke="#1C79F6" stroke-miterlimit="10" stroke-linecap="round"/>
<path d="M87.7169 146.049H83.3423V151.5H87.7169V146.049Z" stroke="#1C79F6" stroke-miterlimit="10" stroke-linecap="round"/>
<path d="M52.1983 157.5H47.8237V162.951H52.1983V157.5Z" stroke="#1C79F6" stroke-miterlimit="10" stroke-linecap="round"/>
<path d="M59.3033 157.5H54.9287V162.951H59.3033V157.5Z" stroke="#1C79F6" stroke-miterlimit="10" stroke-linecap="round"/>
<path d="M66.4088 157.5H62.0342V162.951H66.4088V157.5Z" stroke="#1C79F6" stroke-miterlimit="10" stroke-linecap="round"/>
<path d="M73.5138 157.5H69.1392V162.951H73.5138V157.5Z" stroke="#1C79F6" stroke-miterlimit="10" stroke-linecap="round"/>
<path d="M80.6114 157.5H76.2368V162.951H80.6114V157.5Z" stroke="#1C79F6" stroke-miterlimit="10" stroke-linecap="round"/>
<path d="M87.7169 157.5H83.3423V162.951H87.7169V157.5Z" stroke="#1C79F6" stroke-miterlimit="10" stroke-linecap="round"/>
<path d="M52.1983 168.958H47.8237V174.409H52.1983V168.958Z" stroke="#1C79F6" stroke-miterlimit="10" stroke-linecap="round"/>
<path d="M59.3033 168.958H54.9287V174.409H59.3033V168.958Z" stroke="#1C79F6" stroke-miterlimit="10" stroke-linecap="round"/>
<path d="M66.4088 168.958H62.0342V174.409H66.4088V168.958Z" stroke="#1C79F6" stroke-miterlimit="10" stroke-linecap="round"/>
<path d="M73.5138 168.958H69.1392V174.409H73.5138V168.958Z" stroke="#1C79F6" stroke-miterlimit="10" stroke-linecap="round"/>
<path d="M80.6114 168.958H76.2368V174.409H80.6114V168.958Z" stroke="#1C79F6" stroke-miterlimit="10" stroke-linecap="round"/>
<path d="M87.7169 168.958H83.3423V174.409H87.7169V168.958Z" stroke="#1C79F6" stroke-miterlimit="10" stroke-linecap="round"/>
<path d="M52.1983 180.409H47.8237V185.86H52.1983V180.409Z" stroke="#1C79F6" stroke-miterlimit="10" stroke-linecap="round"/>
<path d="M59.3033 180.409H54.9287V185.86H59.3033V180.409Z" stroke="#1C79F6" stroke-miterlimit="10" stroke-linecap="round"/>
<path d="M66.4088 180.409H62.0342V185.86H66.4088V180.409Z" stroke="#1C79F6" stroke-miterlimit="10" stroke-linecap="round"/>
<path d="M73.5138 180.409H69.1392V185.86H73.5138V180.409Z" stroke="#1C79F6" stroke-miterlimit="10" stroke-linecap="round"/>
<path d="M80.6114 180.409H76.2368V185.86H80.6114V180.409Z" stroke="#1C79F6" stroke-miterlimit="10" stroke-linecap="round"/>
<path d="M87.7169 180.409H83.3423V185.86H87.7169V180.409Z" stroke="#1C79F6" stroke-miterlimit="10" stroke-linecap="round"/>
<path d="M465.831 53.8784H461.457V59.3292H465.831V53.8784Z" stroke="#1C79F6" stroke-miterlimit="10" stroke-linecap="round"/>
<path d="M472.937 53.8784H468.562V59.3292H472.937V53.8784Z" stroke="#1C79F6" stroke-miterlimit="10" stroke-linecap="round"/>
<path d="M480.042 53.8784H475.667V59.3292H480.042V53.8784Z" stroke="#1C79F6" stroke-miterlimit="10" stroke-linecap="round"/>
<path d="M465.831 67.5127H461.457V72.9634H465.831V67.5127Z" stroke="#1C79F6" stroke-miterlimit="10" stroke-linecap="round"/>
<path d="M472.937 67.5127H468.562V72.9634H472.937V67.5127Z" stroke="#1C79F6" stroke-miterlimit="10" stroke-linecap="round"/>
<path d="M480.042 67.5127H475.667V72.9634H480.042V67.5127Z" stroke="#1C79F6" stroke-miterlimit="10" stroke-linecap="round"/>
<path d="M465.831 81.1465H461.457V86.5972H465.831V81.1465Z" stroke="#1C79F6" stroke-miterlimit="10" stroke-linecap="round"/>
<path d="M472.937 81.1465H468.562V86.5972H472.937V81.1465Z" stroke="#1C79F6" stroke-miterlimit="10" stroke-linecap="round"/>
<path d="M480.042 81.1465H475.667V86.5972H480.042V81.1465Z" stroke="#1C79F6" stroke-miterlimit="10" stroke-linecap="round"/>
<path d="M465.831 94.7881H461.457V100.239H465.831V94.7881Z" stroke="#1C79F6" stroke-miterlimit="10" stroke-linecap="round"/>
<path d="M472.937 94.7881H468.562V100.239H472.937V94.7881Z" stroke="#1C79F6" stroke-miterlimit="10" stroke-linecap="round"/>
<path d="M480.042 94.7881H475.667V100.239H480.042V94.7881Z" stroke="#1C79F6" stroke-miterlimit="10" stroke-linecap="round"/>
<path d="M465.831 108.422H461.457V113.873H465.831V108.422Z" stroke="#1C79F6" stroke-miterlimit="10" stroke-linecap="round"/>
<path d="M472.937 108.422H468.562V113.873H472.937V108.422Z" stroke="#1C79F6" stroke-miterlimit="10" stroke-linecap="round"/>
<path d="M480.042 108.422H475.667V113.873H480.042V108.422Z" stroke="#1C79F6" stroke-miterlimit="10" stroke-linecap="round"/>
<path d="M465.831 122.056H461.457V127.507H465.831V122.056Z" stroke="#1C79F6" stroke-miterlimit="10" stroke-linecap="round"/>
<path d="M472.937 122.056H468.562V127.507H472.937V122.056Z" stroke="#1C79F6" stroke-miterlimit="10" stroke-linecap="round"/>
<path d="M480.042 122.056H475.667V127.507H480.042V122.056Z" stroke="#1C79F6" stroke-miterlimit="10" stroke-linecap="round"/>
<path d="M465.831 135.69H461.457V141.141H465.831V135.69Z" stroke="#1C79F6" stroke-miterlimit="10" stroke-linecap="round"/>
<path d="M472.937 135.69H468.562V141.141H472.937V135.69Z" stroke="#1C79F6" stroke-miterlimit="10" stroke-linecap="round"/>
<path d="M480.042 135.69H475.667V141.141H480.042V135.69Z" stroke="#1C79F6" stroke-miterlimit="10" stroke-linecap="round"/>
<path d="M465.831 149.324H461.457V154.775H465.831V149.324Z" stroke="#1C79F6" stroke-miterlimit="10" stroke-linecap="round"/>
<path d="M472.937 149.324H468.562V154.775H472.937V149.324Z" stroke="#1C79F6" stroke-miterlimit="10" stroke-linecap="round"/>
<path d="M480.042 149.324H475.667V154.775H480.042V149.324Z" stroke="#1C79F6" stroke-miterlimit="10" stroke-linecap="round"/>
<path d="M465.831 162.958H461.457V168.409H465.831V162.958Z" stroke="#1C79F6" stroke-miterlimit="10" stroke-linecap="round"/>
<path d="M472.937 162.958H468.562V168.409H472.937V162.958Z" stroke="#1C79F6" stroke-miterlimit="10" stroke-linecap="round"/>
<path d="M419.326 81.1465H414.951V86.5972H419.326V81.1465Z" stroke="#1C79F6" stroke-miterlimit="10" stroke-linecap="round"/>
<path d="M426.431 81.1465H422.056V86.5972H426.431V81.1465Z" stroke="#1C79F6" stroke-miterlimit="10" stroke-linecap="round"/>
<path d="M419.326 94.7881H414.951V100.239H419.326V94.7881Z" stroke="#1C79F6" stroke-miterlimit="10" stroke-linecap="round"/>
<path d="M426.431 94.7881H422.056V100.239H426.431V94.7881Z" stroke="#1C79F6" stroke-miterlimit="10" stroke-linecap="round"/>
<path d="M419.326 108.422H414.951V113.873H419.326V108.422Z" stroke="#1C79F6" stroke-miterlimit="10" stroke-linecap="round"/>
<path d="M426.431 108.422H422.056V113.873H426.431V108.422Z" stroke="#1C79F6" stroke-miterlimit="10" stroke-linecap="round"/>
<path d="M419.326 122.056H414.951V127.507H419.326V122.056Z" stroke="#1C79F6" stroke-miterlimit="10" stroke-linecap="round"/>
<path d="M426.431 122.056H422.056V127.507H426.431V122.056Z" stroke="#1C79F6" stroke-miterlimit="10" stroke-linecap="round"/>
<path d="M419.326 135.69H414.951V141.141H419.326V135.69Z" stroke="#1C79F6" stroke-miterlimit="10" stroke-linecap="round"/>
<path d="M426.431 135.69H422.056V141.141H426.431V135.69Z" stroke="#1C79F6" stroke-miterlimit="10" stroke-linecap="round"/>
<path d="M419.326 149.324H414.951V154.775H419.326V149.324Z" stroke="#1C79F6" stroke-miterlimit="10" stroke-linecap="round"/>
<path d="M426.431 149.324H422.056V154.775H426.431V149.324Z" stroke="#1C79F6" stroke-miterlimit="10" stroke-linecap="round"/>
<path d="M419.326 162.958H414.951V168.409H419.326V162.958Z" stroke="#1C79F6" stroke-miterlimit="10" stroke-linecap="round"/>
<path d="M426.431 162.958H422.056V168.409H426.431V162.958Z" stroke="#1C79F6" stroke-miterlimit="10" stroke-linecap="round"/>
<path d="M294.135 94.7881H289.76V100.239H294.135V94.7881Z" stroke="#1C79F6" stroke-miterlimit="10" stroke-linecap="round"/>
<path d="M301.24 94.7881H296.865V100.239H301.24V94.7881Z" stroke="#1C79F6" stroke-miterlimit="10" stroke-linecap="round"/>
<path d="M294.135 108.422H289.76V113.873H294.135V108.422Z" stroke="#1C79F6" stroke-miterlimit="10" stroke-linecap="round"/>
<path d="M301.24 108.422H296.865V113.873H301.24V108.422Z" stroke="#1C79F6" stroke-miterlimit="10" stroke-linecap="round"/>
<path d="M294.135 122.056H289.76V127.507H294.135V122.056Z" stroke="#1C79F6" stroke-miterlimit="10" stroke-linecap="round"/>
<path d="M301.24 122.056H296.865V127.507H301.24V122.056Z" stroke="#1C79F6" stroke-miterlimit="10" stroke-linecap="round"/>
<path d="M294.135 135.69H289.76V141.141H294.135V135.69Z" stroke="#1C79F6" stroke-miterlimit="10" stroke-linecap="round"/>
<path d="M301.24 135.69H296.865V141.141H301.24V135.69Z" stroke="#1C79F6" stroke-miterlimit="10" stroke-linecap="round"/>
<path d="M294.135 149.324H289.76V154.775H294.135V149.324Z" stroke="#1C79F6" stroke-miterlimit="10" stroke-linecap="round"/>
<path d="M301.24 149.324H296.865V154.775H301.24V149.324Z" stroke="#1C79F6" stroke-miterlimit="10" stroke-linecap="round"/>
<path d="M294.135 162.958H289.76V168.409H294.135V162.958Z" stroke="#1C79F6" stroke-miterlimit="10" stroke-linecap="round"/>
<path d="M301.24 162.958H296.865V168.409H301.24V162.958Z" stroke="#1C79F6" stroke-miterlimit="10" stroke-linecap="round"/>
<path d="M310.221 94.7881H305.846V100.239H310.221V94.7881Z" stroke="#1C79F6" stroke-miterlimit="10" stroke-linecap="round"/>
<path d="M317.326 94.7881H312.952V100.239H317.326V94.7881Z" stroke="#1C79F6" stroke-miterlimit="10" stroke-linecap="round"/>
<path d="M310.221 108.422H305.846V113.873H310.221V108.422Z" stroke="#1C79F6" stroke-miterlimit="10" stroke-linecap="round"/>
<path d="M317.326 108.422H312.952V113.873H317.326V108.422Z" stroke="#1C79F6" stroke-miterlimit="10" stroke-linecap="round"/>
<path d="M310.221 122.056H305.846V127.507H310.221V122.056Z" stroke="#1C79F6" stroke-miterlimit="10" stroke-linecap="round"/>
<path d="M317.326 122.056H312.952V127.507H317.326V122.056Z" stroke="#1C79F6" stroke-miterlimit="10" stroke-linecap="round"/>
<path d="M310.221 135.69H305.846V141.141H310.221V135.69Z" stroke="#1C79F6" stroke-miterlimit="10" stroke-linecap="round"/>
<path d="M317.326 135.69H312.952V141.141H317.326V135.69Z" stroke="#1C79F6" stroke-miterlimit="10" stroke-linecap="round"/>
<path d="M310.221 149.324H305.846V154.775H310.221V149.324Z" stroke="#1C79F6" stroke-miterlimit="10" stroke-linecap="round"/>
<path d="M317.326 149.324H312.952V154.775H317.326V149.324Z" stroke="#1C79F6" stroke-miterlimit="10" stroke-linecap="round"/>
<path d="M310.221 162.958H305.846V168.409H310.221V162.958Z" stroke="#1C79F6" stroke-miterlimit="10" stroke-linecap="round"/>
<path d="M317.326 162.958H312.952V168.409H317.326V162.958Z" stroke="#1C79F6" stroke-miterlimit="10" stroke-linecap="round"/>
<path d="M198.567 53.8784H194.192V59.3292H198.567V53.8784Z" stroke="#1C79F6" stroke-miterlimit="10" stroke-linecap="round"/>
<path d="M205.665 53.8784H201.29V59.3292H205.665V53.8784Z" stroke="#1C79F6" stroke-miterlimit="10" stroke-linecap="round"/>
<path d="M198.567 67.5127H194.192V72.9634H198.567V67.5127Z" stroke="#1C79F6" stroke-miterlimit="10" stroke-linecap="round"/>
<path d="M205.665 67.5127H201.29V72.9634H205.665V67.5127Z" stroke="#1C79F6" stroke-miterlimit="10" stroke-linecap="round"/>
<path d="M198.567 81.1465H194.192V86.5972H198.567V81.1465Z" stroke="#1C79F6" stroke-miterlimit="10" stroke-linecap="round"/>
<path d="M205.665 81.1465H201.29V86.5972H205.665V81.1465Z" stroke="#1C79F6" stroke-miterlimit="10" stroke-linecap="round"/>
<path d="M198.567 94.7881H194.192V100.239H198.567V94.7881Z" stroke="#1C79F6" stroke-miterlimit="10" stroke-linecap="round"/>
<path d="M205.665 94.7881H201.29V100.239H205.665V94.7881Z" stroke="#1C79F6" stroke-miterlimit="10" stroke-linecap="round"/>
<path d="M198.567 108.422H194.192V113.873H198.567V108.422Z" stroke="#1C79F6" stroke-miterlimit="10" stroke-linecap="round"/>
<path d="M205.665 108.422H201.29V113.873H205.665V108.422Z" stroke="#1C79F6" stroke-miterlimit="10" stroke-linecap="round"/>
<path d="M198.567 122.056H194.192V127.507H198.567V122.056Z" stroke="#1C79F6" stroke-miterlimit="10" stroke-linecap="round"/>
<path d="M205.665 122.056H201.29V127.507H205.665V122.056Z" stroke="#1C79F6" stroke-miterlimit="10" stroke-linecap="round"/>
<path d="M198.567 135.69H194.192V141.141H198.567V135.69Z" stroke="#1C79F6" stroke-miterlimit="10" stroke-linecap="round"/>
<path d="M205.665 135.69H201.29V141.141H205.665V135.69Z" stroke="#1C79F6" stroke-miterlimit="10" stroke-linecap="round"/>
<path d="M198.567 149.324H194.192V154.775H198.567V149.324Z" stroke="#1C79F6" stroke-miterlimit="10" stroke-linecap="round"/>
<path d="M205.665 149.324H201.29V154.775H205.665V149.324Z" stroke="#1C79F6" stroke-miterlimit="10" stroke-linecap="round"/>
<path d="M198.567 162.958H194.192V168.409H198.567V162.958Z" stroke="#1C79F6" stroke-miterlimit="10" stroke-linecap="round"/>
<path d="M205.665 162.958H201.29V168.409H205.665V162.958Z" stroke="#1C79F6" stroke-miterlimit="10" stroke-linecap="round"/>
<path d="M480.042 162.958H475.667V168.409H480.042V162.958Z" stroke="#1C79F6" stroke-miterlimit="10" stroke-linecap="round"/>
<path d="M323.823 194.022L302.109 206.752L323.57 219.895L298.981 225.309L315.327 244.43L290.26 241.994L299.886 265.221L276.803 255.173L278.766 280.236L259.928 263.559L254.032 288L241.278 266.327L228.103 287.754L222.686 263.204L203.521 279.52L205.969 254.501L182.698 264.115L192.766 241.069L167.655 243.028L184.364 224.225L159.876 218.341L181.59 205.61L160.123 192.468L184.719 187.053L168.372 167.932L193.439 170.368L183.806 147.141L206.896 157.19L204.926 132.126L223.772 148.804L229.668 124.362L242.422 146.035L255.589 124.608L261.014 149.158L280.171 132.842L277.73 157.862L301.001 148.254L290.934 171.294L316.044 169.335L299.335 188.137L323.823 194.022Z" fill="#92E3A9"/>
<path opacity="0.5" d="M305.115 196.798L288.355 206.622L304.927 216.765L285.944 220.943L298.561 235.705L279.215 233.825L286.646 251.754L268.829 243.997L270.343 263.335L255.799 250.467L251.251 269.327L241.408 252.599L231.239 269.14L227.06 250.192L212.27 262.785L214.154 243.476L196.192 250.893L203.963 233.11L184.589 234.621L197.481 220.105L178.584 215.565L195.344 205.74L178.773 195.598L197.756 191.42L185.139 176.658L204.485 178.537L197.053 160.616L214.871 168.366L213.357 149.028L227.9 161.896L232.442 143.035L242.292 159.763L252.453 143.223L256.64 162.171L271.429 149.577L269.539 168.886L287.501 161.469L279.737 179.253L299.111 177.742L286.219 192.258L305.115 196.798Z" fill="white"/>
<path d="M250.997 165.669L247.839 171.106L253.858 174.821L259.594 169.956L250.997 165.669Z" fill="white" stroke="#1C79F6" stroke-linecap="round" stroke-linejoin="round"/>
<path d="M237.815 173.108L235.52 176.253L238.098 177.684L240.104 175.681L237.815 173.108Z" fill="white" stroke="#1C79F6" stroke-linecap="round" stroke-linejoin="round"/>
<path d="M253.004 154.515L242.4 156.235L242.973 159.951L253.858 157.659L253.004 154.515Z" fill="white" stroke="#1C79F6" stroke-linecap="round" stroke-linejoin="round"/>
<path d="M282.511 171.387L275.065 167.101L274.203 169.385L284.517 175.963L282.511 171.387Z" fill="white" stroke="#1C79F6" stroke-linecap="round" stroke-linejoin="round"/>
<path d="M228.356 158.231L222.627 163.378L227.784 166.812L233.231 156.807L228.356 158.231Z" fill="white" stroke="#1C79F6" stroke-linecap="round" stroke-linejoin="round"/>
<path d="M197.126 169.103L194.837 171.959L199.132 174.25L200.277 171.387L197.126 169.103Z" fill="#1C79F6" stroke="#1C79F6" stroke-linecap="round" stroke-linejoin="round"/>
<path d="M299.705 169.674L297.416 172.53L301.711 174.821L302.855 171.959L299.705 169.674Z" fill="#1C79F6" stroke="#1C79F6" stroke-linecap="round" stroke-linejoin="round"/>
<path d="M194.258 175.11L191.969 177.966L196.264 180.257L197.416 177.395L194.258 175.11Z" fill="#1C79F6" stroke="#1C79F6" stroke-linecap="round" stroke-linejoin="round"/>
<path d="M185.668 166.24L186.523 170.245L189.963 169.956L185.668 166.24Z" fill="#1C79F6" stroke="#1C79F6" stroke-linecap="round" stroke-linejoin="round"/>
<path d="M299.813 181.508L303.84 180.72L303.609 177.279L299.813 181.508Z" fill="#1C79F6" stroke="#1C79F6" stroke-linecap="round" stroke-linejoin="round"/>
<path d="M285.379 169.385L289.406 168.597L289.174 165.164L285.379 169.385Z" fill="#1C79F6" stroke="#1C79F6" stroke-linecap="round" stroke-linejoin="round"/>
<path d="M207.439 155.946L208.301 159.951L211.742 159.662L207.439 155.946Z" fill="#1C79F6" stroke="#1C79F6" stroke-linecap="round" stroke-linejoin="round"/>
<path d="M293.114 182.542L293.976 186.547L297.416 186.258L293.114 182.542Z" fill="#1C79F6" stroke="#1C79F6" stroke-linecap="round" stroke-linejoin="round"/>
<path d="M181.655 165.098L178.505 167.101C178.505 167.101 182.228 169.385 182.8 168.546C183.372 167.708 181.655 165.098 181.655 165.098Z" fill="#1C79F6" stroke="#1C79F6" stroke-linecap="round" stroke-linejoin="round"/>
<path d="M197.126 148.197L195.409 150.481L198.545 151.587L199.422 148.768L197.126 148.197Z" fill="#1C79F6" stroke="#1C79F6" stroke-linecap="round" stroke-linejoin="round"/>
<path d="M233.166 239.688L241.835 245.449L239.525 250.784L251.613 253.878L263.035 246.122L245.246 238.256L233.166 239.688Z" fill="#1C79F6" stroke="#1C79F6" stroke-linecap="round" stroke-linejoin="round"/>
<path d="M19.6277 227.268L142.313 235.668C143.298 235.737 144.288 235.686 145.26 235.517L165.627 231.902C167.409 231.588 169.098 230.882 170.573 229.834C172.047 228.787 173.268 227.425 174.149 225.847C175.029 224.269 175.546 222.515 175.662 220.712C175.777 218.91 175.489 217.104 174.818 215.427L174.152 213.771C173.297 211.653 171.863 209.817 170.012 208.475C168.161 207.133 165.968 206.337 163.686 206.181L25.0888 196.682C20.5113 196.364 20.3448 198.93 17.9909 202.863L14.2029 209.195C12.8169 211.507 12.2398 214.213 12.5623 216.888C12.8849 219.562 14.0887 222.054 15.9846 223.972C18.1068 226.083 16.6582 227.066 19.6277 227.268Z" fill="#1C79F6" stroke="#1C79F6" stroke-linecap="round" stroke-linejoin="round"/>
<path d="M163.44 211.458L156.06 210.952L155.958 212.398C152.264 213.62 149.017 215.912 146.631 218.982C144.246 222.052 142.83 225.761 142.562 229.636C142.295 233.512 143.189 237.38 145.131 240.747C147.073 244.113 149.975 246.828 153.467 248.543L153.365 249.989L160.753 250.495C163.372 250.766 166.019 250.508 168.536 249.737C171.053 248.965 173.388 247.695 175.403 246.003C177.418 244.312 179.071 242.232 180.263 239.889C181.455 237.546 182.163 234.987 182.344 232.365C182.524 229.743 182.174 227.112 181.314 224.628C180.453 222.144 179.101 219.859 177.337 217.908C175.573 215.957 173.433 214.38 171.046 213.272C168.658 212.164 166.071 211.547 163.44 211.458Z" fill="#1C79F6" stroke="#1C79F6" stroke-linecap="round" stroke-linejoin="round"/>
<path d="M154.712 250.061C165.545 250.061 174.326 241.297 174.326 230.485C174.326 219.673 165.545 210.909 154.712 210.909C143.88 210.909 135.099 219.673 135.099 230.485C135.099 241.297 143.88 250.061 154.712 250.061Z" fill="#F5CD70" stroke="#1C79F6" stroke-linecap="round" stroke-linejoin="round"/>
<path d="M158.484 244.223C166.094 242.152 170.582 234.315 168.507 226.719C166.432 219.123 158.581 214.644 150.97 216.715C143.36 218.786 138.872 226.623 140.947 234.219C143.022 241.815 150.873 246.294 158.484 244.223Z" fill="white" stroke="#1C79F6" stroke-linecap="round" stroke-linejoin="round"/>
<path d="M220.404 215.369L213.024 214.863C207.901 214.619 202.887 216.388 199.055 219.79C195.224 223.193 192.881 227.959 192.529 233.065C192.176 238.172 193.843 243.213 197.17 247.108C200.498 251.002 205.222 253.441 210.329 253.9L217.717 254.406C220.317 254.641 222.937 254.355 225.425 253.566C227.913 252.776 230.218 251.499 232.204 249.809C234.191 248.118 235.819 246.049 236.993 243.722C238.168 241.395 238.865 238.857 239.044 236.258C239.223 233.659 238.88 231.05 238.035 228.584C237.191 226.119 235.861 223.847 234.125 221.901C232.389 219.956 230.281 218.376 227.925 217.254C225.568 216.132 223.012 215.491 220.404 215.369Z" fill="#1C79F6" stroke="#1C79F6" stroke-linecap="round" stroke-linejoin="round"/>
<path d="M39.5814 202.964L29.6951 202.292L29.1229 210.605C25.6999 217.612 25.144 225.673 27.573 233.081L27.0008 241.401L36.8799 242.081C43.5505 242.536 49.5547 234.129 50.3007 223.35C51.0467 212.572 46.2448 203.427 39.5814 202.964Z" fill="#1C79F6" stroke="#1C79F6" stroke-linecap="round" stroke-linejoin="round"/>
<path d="M41.0231 222.946C41.7824 212.119 36.9795 202.962 30.2954 202.495C23.6113 202.028 17.5772 210.427 16.8178 221.255C16.0585 232.083 20.8614 241.239 27.5455 241.706C34.2296 242.173 40.2637 233.774 41.0231 222.946Z" fill="#F5CD70" stroke="#1C79F6" stroke-width="1.00245" stroke-linecap="round" stroke-linejoin="round"/>
<path d="M36.9379 222.432C36.4091 230.08 32.1504 236.023 27.4281 235.697C22.7059 235.372 19.3018 228.909 19.8305 221.239C20.3592 213.569 24.6107 207.648 29.3402 207.974C34.0697 208.299 37.4304 214.784 36.9379 222.432Z" fill="white" stroke="#1C79F6" stroke-linecap="round" stroke-linejoin="round"/>
<path d="M203.405 195.62L181.206 174.749C175.176 169.087 167.368 165.682 159.108 165.113L96.8208 160.84L135.417 190.957L203.405 195.62Z" fill="white" stroke="#1C79F6" stroke-linecap="round" stroke-linejoin="round"/>
<path d="M182.93 177.308C176.901 171.644 169.093 168.236 160.833 167.665L109.576 164.151C114.679 166.546 119.146 170.107 122.613 174.547L135.403 190.957L202.333 195.547L182.93 177.308Z" fill="#1C79F6" stroke="#1C79F6" stroke-linecap="round" stroke-linejoin="round"/>
<path d="M135.396 190.957L133.723 190.855L137.12 193.516L145.709 194.101L135.396 190.957Z" fill="white" stroke="#1C79F6" stroke-linecap="round" stroke-linejoin="round"/>
<path d="M146.014 187.32L133.723 190.855L148.853 199.942L198.451 217.451L263.853 230.333L259.066 218.442L146.014 187.32Z" fill="#1C79F6" stroke="#1C79F6" stroke-linecap="round" stroke-linejoin="round"/>
<path d="M263.911 244.228L189.832 239.146L189.115 229.314L183.133 206.882L206.266 206.738L240.51 219.981L261.34 223.141L266.236 234.577L263.911 244.228Z" fill="#EAEAEA" stroke="#1C79F6" stroke-linecap="round" stroke-linejoin="round"/>
<path d="M194.548 227.109L196.518 234.504C196.721 235.269 197.16 235.951 197.772 236.454C198.384 236.957 199.138 237.256 199.929 237.309L235.78 239.767L260.739 248.167C261.314 248.199 261.879 248.001 262.308 247.618C262.737 247.234 262.996 246.696 263.028 246.122L262.745 242.348C262.796 241.199 261.485 237.562 260.326 237.483L238.692 227.716L233.941 227.355L196.445 224.781C196.153 224.766 195.86 224.82 195.593 224.939C195.325 225.057 195.089 225.237 194.904 225.464C194.719 225.691 194.59 225.958 194.528 226.244C194.466 226.53 194.473 226.826 194.548 227.109Z" fill="#1C79F6" stroke="#1C79F6" stroke-linecap="round" stroke-linejoin="round"/>
<path d="M261.963 224.825L259.645 224.16L248.477 222.866L250.635 224.051L261.963 224.825Z" fill="white" stroke="#1C79F6" stroke-linecap="round" stroke-linejoin="round"/>
<path d="M210.315 221.282L207.077 209.13L189.268 209.976L191.831 220.017L210.315 221.282Z" fill="white" stroke="#1C79F6" stroke-linecap="round" stroke-linejoin="round"/>
<path d="M245.993 223.733L243.834 222.548L214.421 215.188L214.957 221.601L245.993 223.733Z" fill="#1C79F6" stroke="#1C79F6" stroke-linecap="round" stroke-linejoin="round"/>
<path d="M24.314 184.422L46.7665 166.71C53.7444 161.211 62.5214 158.498 71.3918 159.098L96.7414 160.84C101.769 161.188 106.666 162.591 111.113 164.958C115.56 167.325 119.456 170.602 122.547 174.575L135.338 190.986L24.314 184.422Z" fill="white" stroke="#1C79F6" stroke-linecap="round" stroke-linejoin="round"/>
<path d="M36.0615 185.231L55.32 168.951C61.157 163.939 68.7264 161.405 76.4108 161.889L98.0811 163.378C102.435 163.708 106.662 164.992 110.461 167.138C114.26 169.285 117.539 172.242 120.063 175.797L130.927 190.747L36.0615 185.231Z" fill="#1C79F6" stroke="#1C79F6" stroke-linecap="round" stroke-linejoin="round"/>
<path d="M85.986 162.546C80.8877 170.018 77.6748 178.609 76.6211 187.588L83.6393 187.993C84.3636 181.356 86.6595 169.515 93.7791 163.081L85.986 162.546Z" fill="#F5CD70" stroke="#1C79F6" stroke-linecap="round" stroke-linejoin="round"/>
<path d="M60.7159 165.3C57.1321 171.786 54.8491 178.907 53.9946 186.265L55.5808 186.359C56.3051 180.301 58.1085 170.809 62.9032 164.23C62.1644 164.556 61.4329 164.917 60.7159 165.3Z" fill="#F5CD70" stroke="#1C79F6" stroke-linecap="round" stroke-linejoin="round"/>
<path d="M119.969 190.111L130.927 190.747L122.337 178.92L119.969 190.111Z" fill="#F5CD70" stroke="#1C79F6" stroke-linecap="round" stroke-linejoin="round"/>
<path d="M120.462 182.939L125.93 188.434L125.792 190.45L117.782 189.901L120.462 182.939Z" fill="#1C79F6" stroke="#1C79F6" stroke-linecap="round" stroke-linejoin="round"/>
<path d="M118.165 180.594L108.1 179.904C106.747 179.812 105.575 180.831 105.482 182.181L105.175 186.638C105.082 187.989 106.104 189.158 107.457 189.251L117.522 189.941C118.875 190.034 120.047 189.015 120.14 187.664L120.447 183.207C120.54 181.857 119.518 180.687 118.165 180.594Z" fill="white" stroke="#1C79F6" stroke-linecap="round" stroke-linejoin="round"/>
<path d="M132.412 224.384C132.789 218.911 134.845 206.376 151.678 207.533C164.418 208.4 167.112 226.769 167.112 226.769C167.112 226.769 167.554 234.721 169.553 238.04L170.726 240.006L173.623 240.208L189.847 239.146L189.123 229.314L183.14 206.904L135.403 191L24.3212 184.494L15.4488 186.98C13.9189 187.237 12.4208 187.657 10.9801 188.231C8.23505 189.33 4.8382 191.079 4.5485 192.706L0.405646 215.839C-0.224472 219.338 8.31472 223.271 11.574 224.702L15.036 227.015C14.0219 224.132 13.5624 221.083 13.6816 218.029C14.1741 210.909 17.752 198.402 29.6156 199.234C35.7213 199.653 39.4006 201.149 41.6241 203.448L41.7979 203.658C42.5483 204.484 43.1553 205.43 43.5941 206.456C45.3956 209.844 46.5012 213.558 46.8461 217.379C47.7152 226.321 50.6268 230.716 53.5167 231.902L53.9657 232.097L136.164 237.642C133.672 233.5 132.108 228.83 132.412 224.384Z" fill="white" stroke="#1C79F6" stroke-linecap="round" stroke-linejoin="round"/>
<path d="M74.7812 222.656C75.6142 224.579 76.2298 225.83 76.2298 225.83L74.7812 222.656Z" fill="white"/>
<path d="M74.7812 222.656C75.6142 224.579 76.2298 225.83 76.2298 225.83" stroke="#1C79F6" stroke-linecap="round" stroke-linejoin="round"/>
<path d="M76.2663 190.935C76.2663 190.935 71.334 202.415 71.334 209.398C71.334 212.536 72.3335 216.172 73.4344 219.23" fill="white"/>
<path d="M76.2663 190.935C76.2663 190.935 71.334 202.415 71.334 209.398C71.334 212.536 72.3335 216.172 73.4344 219.23" stroke="#1C79F6" stroke-linecap="round" stroke-linejoin="round"/>
<path d="M191.831 220.018L198.488 220.473L195.902 209.666L189.268 209.976L191.831 220.018Z" fill="#F5BE41" stroke="#1C79F6" stroke-linecap="round" stroke-linejoin="round"/>
<path d="M258.443 224.587L261.963 224.825L259.645 224.16L256.045 223.741L258.443 224.587Z" fill="white" stroke="#1C79F6" stroke-linecap="round" stroke-linejoin="round"/>
<path d="M50.7863 195.46L46.093 195.135C45.8811 195.121 45.6739 195.066 45.4836 194.972C45.2932 194.878 45.1234 194.747 44.984 194.587C44.8446 194.427 44.7384 194.241 44.6714 194.04C44.6044 193.838 44.578 193.626 44.5938 193.415C44.6074 193.2 44.6641 192.99 44.7607 192.797C44.8572 192.605 44.9916 192.433 45.1558 192.294C45.32 192.154 45.5107 192.049 45.7165 191.984C45.9223 191.92 46.1391 191.897 46.3538 191.918L51.0471 192.236C51.2587 192.251 51.4654 192.307 51.6553 192.401C51.8452 192.496 52.0146 192.627 52.1538 192.786C52.293 192.946 52.3993 193.132 52.4667 193.333C52.534 193.533 52.5611 193.746 52.5463 193.957C52.5317 194.172 52.4744 194.381 52.3776 194.574C52.2808 194.766 52.1465 194.937 51.9826 195.077C51.8188 195.217 51.6286 195.323 51.4231 195.389C51.2177 195.455 51.0012 195.479 50.7863 195.46Z" fill="white" stroke="#1C79F6" stroke-linecap="round" stroke-linejoin="round"/>
<path d="M88.1877 198.019L83.4944 197.701C83.2827 197.687 83.0761 197.63 82.8862 197.536C82.6963 197.442 82.5269 197.311 82.3877 197.151C82.2484 196.991 82.1421 196.806 82.0748 196.605C82.0074 196.404 81.9804 196.192 81.9951 195.981C82.0249 195.554 82.2229 195.155 82.546 194.874C82.869 194.592 83.2908 194.449 83.7189 194.477L88.4122 194.802C88.6242 194.816 88.8313 194.872 89.0217 194.966C89.212 195.06 89.3818 195.191 89.5212 195.351C89.6606 195.511 89.7669 195.697 89.8339 195.898C89.9008 196.099 89.9272 196.311 89.9115 196.523C89.8977 196.734 89.8421 196.941 89.7478 197.131C89.6535 197.321 89.5224 197.491 89.3621 197.63C89.2019 197.769 89.0155 197.875 88.814 197.942C88.6124 198.009 88.3995 198.035 88.1877 198.019Z" fill="white" stroke="#1C79F6" stroke-linecap="round" stroke-linejoin="round"/>
<path d="M127.733 230.044C127.941 231.314 128.286 232.557 128.761 233.753" stroke="#1C79F6" stroke-linecap="round" stroke-linejoin="round"/>
<path d="M133.599 193.487C131.648 195.209 130.258 197.475 129.609 199.993C128.653 203.506 126.364 217.95 127.436 227.811" stroke="#1C79F6" stroke-linecap="round" stroke-linejoin="round"/>
<path d="M141.958 205.827C145.435 203.528 150.874 201.301 157.371 203.354C166.895 206.362 167.554 218.174 167.605 221.709" stroke="#1C79F6" stroke-linecap="round" stroke-linejoin="round"/>
<path d="M137.808 209.369C138.513 208.583 139.283 207.857 140.111 207.2" stroke="#1C79F6" stroke-linecap="round" stroke-linejoin="round"/>
<path d="M4.54148 192.634L2.97705 201.352L6.64912 201.605L7.24303 192.706L4.54873 192.518C4.56321 192.561 4.54873 192.598 4.54148 192.634Z" fill="#92E3A9" stroke="#1C79F6" stroke-linecap="round" stroke-linejoin="round"/>
<path d="M181.25 188.73L191.027 187.848L201.116 179.679L212.705 179.795C212.705 179.795 216.073 189.453 225.249 195.186C231.384 199.039 244.501 199.668 244.566 199.928C244.74 200.593 245.696 208.653 245.696 208.653C245.696 208.653 258.066 217.711 259.095 218.427C260.123 219.143 261.369 223.126 261.369 223.126L222.722 212.384L206.266 206.752L185.414 206.477L156.566 195.431L140.719 190.993C140.719 190.993 173.877 185.506 181.25 188.73Z" fill="white" stroke="#1C79F6" stroke-linecap="round" stroke-linejoin="round"/>
<path d="M185.414 206.477L205.274 202.906L222.692 212.398" stroke="#1C79F6" stroke-linecap="round" stroke-linejoin="round"/>
<path d="M242.364 200.311L233.694 204.085L223.2 205.039L241.364 209.984" stroke="#1C79F6" stroke-linecap="round" stroke-linejoin="round"/>
<path d="M192.925 190.205L218.89 204.077" stroke="#1C79F6" stroke-linecap="round" stroke-linejoin="round"/>
<path d="M189.325 185.303L179.62 180.12L175.999 176.954L172.196 175.725L169.089 173.896L165.584 173.014L161.006 173.665C161.006 173.665 163.179 174.785 157.255 171.792C151.33 168.799 147.375 169.501 147.375 169.501" stroke="white" stroke-linecap="round" stroke-linejoin="round"/>
<path d="M184.943 183.063L178.823 182.643L174.681 181.718L170.835 181.125L166.967 180.865L161.021 177.872C158.124 177.67 150.881 179.434 150.881 179.434" stroke="white" stroke-linecap="round" stroke-linejoin="round"/>
<path d="M164.903 180.062L160.202 180.67L158.536 183.157L155.965 185.405L146.014 187.321" stroke="white" stroke-linecap="round" stroke-linejoin="round"/>
<path d="M185.958 185.78L182.561 186.294L179.801 185.737L175.151 185.6L172.877 186.192L168.727 186.836L164.092 186.518" stroke="white" stroke-linecap="round" stroke-linejoin="round"/>
<path d="M182.698 178.862L179.642 180.12L178.823 182.643L178.621 183.981L179.801 185.737" stroke="white" stroke-linecap="round" stroke-linejoin="round"/>
<path d="M178.932 176.744L175.977 176.954L173.225 173L170.161 171.489" stroke="white" stroke-linecap="round" stroke-linejoin="round"/>
<path d="M174.782 180.178L174.68 181.718L173.572 184.19L175.151 185.6" stroke="white" stroke-linecap="round" stroke-linejoin="round"/>
<path d="M175.434 173.339L169.219 177.005L166.967 180.865L167.112 183.185L168.285 185.13L169.922 188.405" stroke="white" stroke-linecap="round" stroke-linejoin="round"/>
<path d="M250.635 224.051L266.236 234.577L261.963 224.825L250.635 224.051Z" fill="white" stroke="#1C79F6" stroke-linecap="round" stroke-linejoin="round"/>
<path d="M69.1899 239.139L97.357 240.209" stroke="#1C79F6" stroke-linecap="round" stroke-linejoin="round"/>
<path d="M77.9824 244.502L106.142 245.572" stroke="#1C79F6" stroke-linecap="round" stroke-linejoin="round"/>
<path d="M459.088 205.936L452.968 206.377L452.889 206.514C452.358 206.474 451.826 206.474 451.295 206.514C443.828 207.056 438.345 215.268 439.04 224.861C439.736 234.454 446.363 241.785 453.83 241.243C454.36 241.201 454.885 241.119 455.402 240.997L455.503 241.12L461.623 240.679C469.091 240.136 474.581 231.917 473.878 222.331C473.175 212.745 466.563 205.386 459.088 205.936Z" fill="#1C79F6" stroke="#1C79F6" stroke-linecap="round" stroke-linejoin="round"/>
<path d="M333.637 215.051L327.509 215.499L327.43 215.637C326.902 215.593 326.371 215.593 325.844 215.637C318.369 216.15 312.886 224.377 313.611 233.97C314.335 243.563 320.926 250.893 328.4 250.351C328.93 250.309 329.455 250.227 329.972 250.105L330.066 250.228L336.194 249.787C343.661 249.245 349.144 241.025 348.448 231.439C347.753 221.854 341.133 214.509 333.637 215.051Z" fill="#1C79F6" stroke="#1C79F6" stroke-linecap="round" stroke-linejoin="round"/>
<path d="M517.414 202.205L514.474 202.422L510.497 184.183C510.262 183.11 509.647 182.158 508.765 181.501C507.883 180.843 506.793 180.525 505.695 180.605L489.218 181.797L460.407 155.426C458.864 154.013 457.047 152.93 455.069 152.243C453.091 151.557 450.994 151.282 448.905 151.435L377.999 156.59C376.464 156.697 374.966 157.114 373.597 157.814C372.228 158.515 371.015 159.485 370.032 160.667L252.047 220.827L253.634 242.515L436.23 229.242L482.004 225.548L515.821 220.849V220.697L518.58 220.488C518.727 220.478 518.87 220.439 519.002 220.373C519.133 220.308 519.25 220.217 519.347 220.106C519.443 219.995 519.516 219.866 519.562 219.727C519.609 219.588 519.627 219.441 519.616 219.295L518.457 203.138C518.452 203.008 518.42 202.88 518.364 202.762C518.309 202.644 518.23 202.539 518.133 202.452C518.035 202.365 517.922 202.298 517.798 202.256C517.675 202.214 517.544 202.196 517.414 202.205Z" fill="#F5BE41" stroke="#1C79F6" stroke-linecap="round" stroke-linejoin="round"/>
<path d="M466.831 223.647L467.056 226.755L482.005 225.548L515.821 220.849V220.697L518.58 220.488C518.791 220.47 518.993 220.393 519.161 220.265C519.329 220.136 519.457 219.963 519.529 219.765L466.831 223.647Z" fill="#1C79F6" stroke="#1C79F6" stroke-linecap="round" stroke-linejoin="round"/>
<path d="M482.004 225.548C482.299 225.516 482.57 225.369 482.756 225.139C482.942 224.908 483.028 224.613 482.997 224.319C482.965 224.025 482.817 223.755 482.587 223.569C482.356 223.384 482.06 223.297 481.765 223.329L464.586 224.579L395.642 155.274L377.999 156.561C376.464 156.668 374.966 157.085 373.597 157.785C372.228 158.486 371.015 159.457 370.032 160.638L252.047 220.827L253.634 242.515L436.23 229.242L482.004 225.548Z" fill="#1C79F6" stroke="#1C79F6" stroke-linecap="round" stroke-linejoin="round"/>
<path d="M244.435 187.964L228.125 182.838L225.22 189.887L225.705 194.6L247.455 199.126L244.435 187.964Z" fill="#1C79F6" stroke="#1C79F6" stroke-linecap="round" stroke-linejoin="round"/>
<path d="M312.705 200.326L293.374 188.267L287.327 175.602L272.53 176.209C272.53 176.209 253.192 175.906 250.801 177.113C248.411 178.32 240.531 190.075 240.531 190.075L232.977 197.015L243.247 202.14L253.822 206.362L254.727 216.309L264.997 217.213L278.592 212.991L285.835 206.962L312.705 200.326Z" fill="#F5BE41" stroke="#1C79F6" stroke-linecap="round" stroke-linejoin="round"/>
<path d="M252.59 180.431L264.374 200.333L260.145 210.28L260.202 213.916L264.374 214.798" stroke="#1C79F6" stroke-linecap="round" stroke-linejoin="round"/>
<path d="M280.482 218.919L274.362 219.367L270.741 225.541C268.783 229.125 267.9 233.196 268.198 237.267C268.496 241.339 269.962 245.238 272.421 248.5L276.868 254.096L282.988 253.647C290.456 253.105 295.946 244.893 295.243 235.3C294.54 225.707 287.95 218.377 280.482 218.919Z" fill="#1C79F6" stroke="#1C79F6" stroke-linecap="round" stroke-linejoin="round"/>
<path d="M275.242 254.193C282.71 253.649 288.196 245.436 287.496 235.847C286.795 226.259 280.173 218.926 272.705 219.47C265.237 220.013 259.75 228.227 260.451 237.815C261.151 247.404 267.773 254.736 275.242 254.193Z" fill="#F8B214" stroke="#1C79F6" stroke-linecap="round" stroke-linejoin="round"/>
<path d="M274.985 250.681C280.942 250.248 285.317 243.696 284.759 236.046C284.2 228.397 278.918 222.547 272.962 222.981C267.006 223.414 262.63 229.967 263.189 237.616C263.748 245.265 269.029 251.115 274.985 250.681Z" fill="white" stroke="#1C79F6" stroke-linecap="round" stroke-linejoin="round"/>
<path d="M276.238 236.688C276.354 238.3 275.427 239.688 274.174 239.775C272.921 239.862 271.798 238.633 271.675 237.014C271.552 235.394 272.486 234.013 273.746 233.927C275.007 233.84 276.115 235.069 276.238 236.688Z" fill="white" stroke="#1C79F6" stroke-linecap="round" stroke-linejoin="round"/>
<path d="M416.957 208.993L410.83 209.441L407.208 215.622C405.262 219.207 404.388 223.275 404.691 227.341C404.994 231.408 406.461 235.302 408.918 238.56L413.365 244.148L419.485 243.707C426.959 243.165 432.442 234.946 431.74 225.36C431.037 215.774 424.424 208.451 416.957 208.993Z" fill="#1C79F6" stroke="#1C79F6" stroke-linecap="round" stroke-linejoin="round"/>
<path d="M423.947 225.945C424.671 235.538 419.159 243.751 411.692 244.293C404.225 244.835 397.627 237.505 396.902 227.912C396.178 218.319 401.69 210.107 409.157 209.564C416.624 209.022 423.244 216.352 423.947 225.945Z" fill="#F8B214" stroke="#1C79F6" stroke-linecap="round" stroke-linejoin="round"/>
<path d="M421.216 226.141C421.774 233.796 417.392 240.346 411.438 240.78C405.485 241.213 400.197 235.365 399.64 227.71C399.082 220.054 403.457 213.512 409.417 213.078C415.378 212.644 420.651 218.492 421.216 226.141Z" fill="white" stroke="#1C79F6" stroke-linecap="round" stroke-linejoin="round"/>
<path d="M412.706 226.763C412.822 228.382 411.894 229.763 410.641 229.857C409.388 229.951 408.266 228.707 408.15 227.095C408.034 225.483 408.954 224.095 410.214 224.001C411.474 223.907 412.59 225.143 412.706 226.763Z" fill="white" stroke="#1C79F6" stroke-linecap="round" stroke-linejoin="round"/>
<path d="M460.407 155.426C460.168 155.209 459.914 155.014 459.682 154.818L404.449 158.831L406.434 186.077L487.437 180.171L460.407 155.426Z" fill="#1C79F6" stroke="#1C79F6" stroke-linecap="round" stroke-linejoin="round"/>
<path d="M470.445 205.617L467.229 205.856L462.406 183.749L441.974 185.239L413.162 158.852C411.621 157.437 409.805 156.352 407.826 155.664C405.848 154.977 403.75 154.701 401.661 154.855L336.57 159.59C335.041 159.701 333.55 160.119 332.187 160.82C330.825 161.52 329.618 162.489 328.639 163.667L289.087 194.463L283.01 199.35L278.266 210.584L260.739 217.213L246.391 222.273C245.056 224.367 244.432 226.833 244.609 229.307L245.616 243.043L257.755 242.175L257.422 237.592C257.016 232.112 260.203 232.105 263.114 228.194C266.149 224.146 265.483 227.601 269.633 222.873L274.167 215.962C283.133 215.312 289.232 222.165 291.354 231.917L293.02 239.58L394.418 232.206L394.085 227.63C393.266 216.432 397.206 207.02 409.577 206.124C420.608 205.321 425.077 212.29 427.517 222.028L429.35 229.351L468.613 224.29V224.131L471.836 223.9L470.445 205.617Z" fill="#F5CD70" stroke="#1C79F6" stroke-linecap="round" stroke-linejoin="round"/>
<path d="M329.284 167.715L295.308 193.971L362.028 189.121L360.08 162.373L336.454 164.101C335.078 164.198 333.736 164.567 332.504 165.188C331.273 165.808 330.178 166.668 329.284 167.715Z" fill="#1C79F6" stroke="#1C79F6" stroke-linecap="round" stroke-linejoin="round"/>
<path d="M323.258 191.947L342.466 163.645L336.455 164.079C335.079 164.175 333.736 164.545 332.505 165.166C331.274 165.786 330.179 166.646 329.284 167.693L317.399 176.881L306.368 193.176L323.258 191.947Z" fill="white" stroke="#1C79F6" stroke-linecap="round" stroke-linejoin="round"/>
<path d="M362.028 189.128L360.63 169.906L346.833 190.234L362.028 189.128Z" fill="white" stroke="#1C79F6" stroke-linecap="round" stroke-linejoin="round"/>
<path d="M411.228 163.023L427.539 177.409C428.081 177.891 428.486 178.507 428.712 179.195C428.907 179.784 428.964 180.409 428.88 181.023C428.796 181.638 428.572 182.225 428.226 182.74C427.881 183.255 427.422 183.684 426.885 183.996C426.348 184.307 425.747 184.492 425.127 184.537L366.461 188.802L364.513 162.055L400.524 159.423C402.458 159.28 404.402 159.524 406.241 160.142C408.079 160.761 409.775 161.74 411.228 163.023Z" fill="#1C79F6" stroke="#1C79F6" stroke-linecap="round" stroke-linejoin="round"/>
<path d="M396.692 159.698L390.804 160.125L371.596 188.434L377.492 188L396.692 159.698Z" fill="white" stroke="#1C79F6" stroke-linecap="round" stroke-linejoin="round"/>
<path d="M364.687 163.927L366.244 185.304L382.938 160.696L366.041 161.932L364.687 163.927Z" fill="white" stroke="#1C79F6" stroke-linecap="round" stroke-linejoin="round"/>
<path d="M462.406 183.749L505.696 180.605C506.793 180.525 507.883 180.843 508.765 181.501C509.647 182.158 510.262 183.11 510.498 184.183L514.474 202.415L467.229 205.849L462.406 183.749Z" fill="#F5BE41" stroke="#1C79F6" stroke-linecap="round" stroke-linejoin="round"/>
<path d="M504.244 190.805L483.714 192.299L484.329 200.713L504.858 199.219L504.244 190.805Z" fill="white" stroke="#1C79F6" stroke-linecap="round" stroke-linejoin="round"/>
<path d="M516.98 205.697L429.017 212.095" stroke="#1C79F6" stroke-width="2" stroke-linecap="round" stroke-linejoin="round"/>
<path d="M389.703 214.95L292.223 222.042" stroke="#1C79F6" stroke-width="2" stroke-linecap="round" stroke-linejoin="round"/>
<path d="M259.855 224.398L248.701 225.208" stroke="#1C79F6" stroke-width="2" stroke-linecap="round" stroke-linejoin="round"/>
<path d="M480.194 192.721L460.805 194.167C459.907 194.231 459.045 194.543 458.316 195.07C457.587 195.596 457.019 196.314 456.677 197.145L453.874 203.861C453.747 204.168 453.701 204.503 453.74 204.833C453.779 205.163 453.902 205.477 454.097 205.747C454.293 206.016 454.553 206.231 454.855 206.372C455.157 206.512 455.49 206.574 455.822 206.55L481.041 204.721L480.194 192.721Z" fill="#92E3A9" stroke="#1C79F6" stroke-linecap="round" stroke-linejoin="round"/>
<path d="M480.165 192.721L464.535 193.856L467.121 205.697L481.041 204.685L480.165 192.721Z" fill="#1C79F6" stroke="#1C79F6" stroke-linecap="round" stroke-linejoin="round"/>
<path d="M511.779 190.422L507.05 190.769L507.861 202.733L514.365 202.256L511.779 190.422Z" fill="#1C79F6" stroke="#1C79F6" stroke-linecap="round" stroke-linejoin="round"/>
<path d="M299.21 188.066L289.654 188.762C288.856 188.82 288.256 189.512 288.314 190.309L288.872 197.937C288.93 198.733 289.624 199.332 290.422 199.274L299.978 198.578C300.776 198.52 301.376 197.827 301.318 197.031L300.761 189.403C300.702 188.607 300.008 188.008 299.21 188.066Z" fill="#1C79F6" stroke="#1C79F6" stroke-linecap="round" stroke-linejoin="round"/>
<path d="M360.801 194.156L348.832 195.027L349.181 199.807L361.151 198.936L360.801 194.156Z" fill="#1C79F6" stroke="#1C79F6" stroke-linecap="round" stroke-linejoin="round"/>
<path d="M363.528 192.063L366.179 228.382" stroke="#1C79F6" stroke-linecap="round" stroke-linejoin="round"/>
<path d="M283.792 214.191C283.792 214.191 292.918 218.492 295.272 235.3L388.334 228.533" stroke="#1C79F6" stroke-linecap="round" stroke-linejoin="round"/>
<path d="M431.32 210.678C431.32 210.678 425.873 199.061 410.511 200.174C399.814 200.955 395.106 206.933 392.868 211.545" stroke="#1C79F6" stroke-linecap="round" stroke-linejoin="round"/>
<path d="M515.734 227.731L483.011 232.119" stroke="#1C79F6" stroke-linecap="round" stroke-linejoin="round"/>
<path d="M502.059 233.58L476.174 236.992" stroke="#1C79F6" stroke-linecap="round" stroke-linejoin="round"/>
</g>
<defs>
<clipPath id="clip0_7_93">
<rect width="520" height="288" fill="white"/>
</clipPath>
</defs>
</svg>
