<svg xmlns="http://www.w3.org/2000/svg" xmlns:xlink="http://www.w3.org/1999/xlink" width="1280" zoomAndPan="magnify" viewBox="0 0 960 78.749999" height="105" preserveAspectRatio="xMidYMid meet" version="1.0"><path fill="#f5cd70" d="M 226.707031 36.464844 C 222.421875 36.382812 218.183594 37.425781 214.421875 39.484375 C 210.660156 41.546875 207.503906 44.550781 205.261719 48.207031 L 247.6875 48.207031 C 244.386719 41.121094 236.675781 36.464844 226.707031 36.464844 Z M 226.707031 36.464844 " fill-opacity="1" fill-rule="nonzero"/><path fill="#5da0fb" d="M 268.46875 67.613281 L 259.605469 67.613281 C 259.460938 67.617188 259.320312 67.5625 259.210938 67.464844 C 259.101562 67.367188 259.035156 67.230469 259.019531 67.085938 C 258.757812 65.300781 258.152344 63.585938 257.242188 62.027344 C 255.265625 58.734375 252.242188 57.085938 248.195312 57.085938 C 244.242188 57.085938 241.289062 58.746094 239.371094 62.019531 C 238.480469 63.585938 237.890625 65.304688 237.632812 67.085938 C 237.617188 67.230469 237.546875 67.363281 237.441406 67.460938 C 237.332031 67.558594 237.191406 67.613281 237.046875 67.613281 L 222.769531 67.613281 C 222.621094 67.613281 222.480469 67.558594 222.375 67.464844 C 222.265625 67.367188 222.195312 67.230469 222.183594 67.085938 C 221.914062 65.320312 221.308594 63.621094 220.398438 62.082031 C 218.421875 58.832031 215.410156 57.1875 211.394531 57.1875 C 207.382812 57.1875 204.484375 58.839844 202.535156 62.105469 C 201.632812 63.632812 201.03125 65.320312 200.761719 67.074219 C 200.746094 67.214844 200.675781 67.351562 200.570312 67.445312 C 200.460938 67.542969 200.320312 67.59375 200.175781 67.59375 L 193.625 67.59375 C 192.558594 67.601562 191.519531 67.238281 190.6875 66.566406 C 190.445312 66.328125 190.253906 66.039062 190.128906 65.722656 C 190 65.40625 189.941406 65.070312 189.949219 64.726562 C 189.933594 64.167969 190.09375 63.621094 190.40625 63.15625 C 190.714844 62.691406 191.164062 62.335938 191.6875 62.140625 C 192.039062 61.992188 192.402344 61.890625 192.777344 61.835938 C 193.761719 54.203125 197.078125 47.054688 202.277344 41.378906 C 205.171875 38.21875 208.703125 35.707031 212.636719 34.003906 C 216.566406 32.300781 220.816406 31.445312 225.101562 31.496094 C 235.070312 31.496094 241.515625 35.449219 245.15625 38.816406 C 247.402344 40.828125 249.261719 43.234375 250.640625 45.914062 C 259.5625 48.550781 264.09375 54.0625 266.320312 58.28125 C 267.792969 60.984375 268.722656 63.953125 269.054688 67.015625 C 269.0625 67.09375 269.050781 67.175781 269.023438 67.25 C 268.996094 67.328125 268.953125 67.398438 268.898438 67.457031 C 268.839844 67.507812 268.773438 67.550781 268.699219 67.578125 C 268.625 67.605469 268.546875 67.617188 268.46875 67.613281 Z M 260.113281 66.460938 L 267.808594 66.460938 C 267.402344 63.777344 266.539062 61.179688 265.261719 58.785156 C 262.136719 52.917969 257.023438 48.945312 250.058594 46.976562 C 249.976562 46.953125 249.894531 46.910156 249.828125 46.851562 C 249.765625 46.792969 249.710938 46.722656 249.675781 46.640625 C 248.355469 43.988281 246.535156 41.613281 244.320312 39.644531 C 240.835938 36.464844 234.667969 32.675781 225.101562 32.675781 C 220.976562 32.632812 216.886719 33.457031 213.105469 35.101562 C 209.320312 36.742188 205.925781 39.164062 203.140625 42.207031 C 198.007812 47.820312 194.78125 54.90625 193.917969 62.460938 C 193.898438 62.605469 193.832031 62.738281 193.726562 62.835938 C 193.617188 62.933594 193.480469 62.988281 193.335938 62.988281 C 193.113281 62.988281 191.140625 63.082031 191.140625 64.753906 C 191.132812 64.9375 191.164062 65.121094 191.230469 65.292969 C 191.296875 65.464844 191.398438 65.621094 191.53125 65.75 C 192.136719 66.210938 192.878906 66.457031 193.640625 66.449219 L 199.695312 66.449219 C 200.023438 64.714844 200.648438 63.050781 201.539062 61.527344 C 202.53125 59.796875 203.972656 58.371094 205.714844 57.402344 C 207.457031 56.4375 209.429688 55.960938 211.421875 56.03125 C 216.992188 56.03125 219.949219 59.023438 221.449219 61.535156 C 222.347656 63.054688 222.972656 64.722656 223.296875 66.460938 L 236.566406 66.460938 C 236.875 64.714844 237.480469 63.035156 238.359375 61.492188 C 239.328125 59.742188 240.765625 58.296875 242.511719 57.316406 C 244.257812 56.335938 246.238281 55.855469 248.242188 55.933594 C 253.847656 55.933594 256.808594 58.957031 258.320312 61.488281 C 259.203125 63.027344 259.808594 64.710938 260.113281 66.460938 Z M 260.113281 66.460938 " fill-opacity="1" fill-rule="nonzero"/><path fill="#5da0fb" d="M 211.414062 77 C 209.605469 77 207.832031 76.464844 206.324219 75.460938 C 204.820312 74.453125 203.644531 73.023438 202.949219 71.351562 C 202.253906 69.679688 202.074219 67.839844 202.425781 66.0625 C 202.777344 64.285156 203.652344 62.652344 204.929688 61.371094 C 206.210938 60.089844 207.84375 59.21875 209.621094 58.863281 C 211.398438 58.511719 213.238281 58.691406 214.914062 59.382812 C 216.585938 60.078125 218.015625 61.25 219.023438 62.757812 C 220.03125 64.261719 220.566406 66.03125 220.566406 67.84375 C 220.566406 70.269531 219.601562 72.597656 217.886719 74.3125 C 216.171875 76.03125 213.84375 76.996094 211.414062 77 Z M 211.414062 59.875 C 209.835938 59.871094 208.292969 60.339844 206.980469 61.214844 C 205.667969 62.089844 204.644531 63.335938 204.039062 64.792969 C 203.433594 66.253906 203.277344 67.855469 203.582031 69.40625 C 203.890625 70.953125 204.652344 72.375 205.765625 73.492188 C 206.882812 74.605469 208.304688 75.367188 209.855469 75.675781 C 211.402344 75.980469 213.007812 75.824219 214.464844 75.21875 C 215.925781 74.613281 217.171875 73.589844 218.046875 72.277344 C 218.921875 70.964844 219.390625 69.421875 219.386719 67.84375 C 219.386719 65.730469 218.542969 63.707031 217.050781 62.210938 C 215.554688 60.71875 213.527344 59.875 211.414062 59.875 Z M 211.414062 59.875 " fill-opacity="1" fill-rule="nonzero"/><path fill="#5da0fb" d="M 248.410156 77 C 246.601562 77 244.828125 76.464844 243.320312 75.460938 C 241.816406 74.453125 240.640625 73.023438 239.945312 71.351562 C 239.253906 69.679688 239.070312 67.839844 239.421875 66.0625 C 239.773438 64.285156 240.644531 62.652344 241.925781 61.371094 C 243.207031 60.089844 244.839844 59.21875 246.617188 58.863281 C 248.394531 58.511719 250.234375 58.691406 251.910156 59.382812 C 253.582031 60.078125 255.011719 61.25 256.019531 62.757812 C 257.027344 64.261719 257.5625 66.03125 257.5625 67.84375 C 257.5625 70.269531 256.597656 72.597656 254.882812 74.3125 C 253.167969 76.03125 250.839844 76.996094 248.410156 77 Z M 248.410156 59.875 C 246.832031 59.871094 245.289062 60.339844 243.976562 61.214844 C 242.664062 62.089844 241.640625 63.335938 241.035156 64.792969 C 240.429688 66.253906 240.273438 67.855469 240.578125 69.40625 C 240.886719 70.953125 241.648438 72.375 242.761719 73.492188 C 243.878906 74.605469 245.300781 75.367188 246.851562 75.675781 C 248.398438 75.980469 250.003906 75.824219 251.460938 75.21875 C 252.921875 74.613281 254.167969 73.589844 255.042969 72.277344 C 255.917969 70.964844 256.386719 69.421875 256.382812 67.84375 C 256.382812 65.730469 255.539062 63.707031 254.046875 62.210938 C 252.550781 60.71875 250.527344 59.875 248.410156 59.875 Z M 248.410156 59.875 " fill-opacity="1" fill-rule="nonzero"/><path fill="#5da0fb" d="M 246.113281 47.285156 L 203.699219 47.285156 C 203.59375 47.285156 203.492188 47.257812 203.398438 47.203125 C 203.308594 47.152344 203.230469 47.074219 203.179688 46.984375 C 203.128906 46.890625 203.101562 46.789062 203.101562 46.683594 C 203.101562 46.578125 203.128906 46.476562 203.179688 46.382812 C 205.398438 42.769531 208.496094 39.773438 212.179688 37.667969 C 216.136719 35.457031 220.601562 34.320312 225.132812 34.375 C 229.773438 34.304688 234.347656 35.4375 238.417969 37.667969 C 242.003906 39.675781 244.878906 42.75 246.640625 46.460938 C 246.679688 46.554688 246.695312 46.652344 246.6875 46.75 C 246.683594 46.847656 246.652344 46.945312 246.601562 47.027344 C 246.546875 47.105469 246.472656 47.171875 246.386719 47.214844 C 246.304688 47.261719 246.207031 47.285156 246.113281 47.285156 Z M 204.78125 46.105469 L 245.164062 46.105469 C 241.652344 39.472656 234.246094 35.566406 225.148438 35.566406 C 220.820312 35.515625 216.554688 36.601562 212.78125 38.714844 C 209.585938 40.535156 206.851562 43.0625 204.789062 46.105469 Z M 204.78125 46.105469 " fill-opacity="1" fill-rule="nonzero"/><path fill="#f5cd70" d="M 764.96875 38.910156 C 766.589844 35.039062 764.757812 30.589844 760.890625 28.972656 C 757.015625 27.355469 752.570312 29.183594 750.949219 33.054688 C 749.335938 36.925781 751.160156 41.371094 755.035156 42.988281 C 758.90625 44.605469 763.355469 42.777344 764.96875 38.910156 Z M 764.96875 38.910156 " fill-opacity="1" fill-rule="nonzero"/><path fill="#f5cd70" d="M 786.574219 43.566406 C 790.773438 43.566406 794.171875 40.164062 794.171875 35.96875 C 794.171875 31.777344 790.773438 28.375 786.574219 28.375 C 782.378906 28.375 778.976562 31.777344 778.976562 35.96875 C 778.976562 40.164062 782.378906 43.566406 786.574219 43.566406 Z M 786.574219 43.566406 " fill-opacity="1" fill-rule="nonzero"/><path fill="#5da0fb" d="M 756.621094 43.5 C 755 43.5 753.417969 43.019531 752.070312 42.117188 C 750.726562 41.21875 749.675781 39.941406 749.058594 38.441406 C 748.4375 36.945312 748.273438 35.300781 748.589844 33.710938 C 748.90625 32.125 749.691406 30.664062 750.828125 29.519531 C 751.976562 28.375 753.4375 27.597656 755.027344 27.28125 C 756.613281 26.964844 758.261719 27.128906 759.757812 27.75 C 761.261719 28.371094 762.539062 29.421875 763.433594 30.765625 C 764.335938 32.113281 764.8125 33.699219 764.8125 35.316406 C 764.8125 37.488281 763.941406 39.566406 762.40625 41.101562 C 760.871094 42.636719 758.789062 43.496094 756.621094 43.5 Z M 756.621094 28.308594 C 755.230469 28.304688 753.875 28.714844 752.722656 29.480469 C 751.566406 30.25 750.664062 31.339844 750.132812 32.621094 C 749.597656 33.902344 749.453125 35.3125 749.722656 36.671875 C 749.992188 38.035156 750.660156 39.285156 751.640625 40.265625 C 752.617188 41.25 753.867188 41.917969 755.226562 42.191406 C 756.589844 42.460938 758 42.324219 759.285156 41.796875 C 760.5625 41.265625 761.65625 40.367188 762.433594 39.214844 C 763.203125 38.0625 763.613281 36.703125 763.613281 35.316406 C 763.613281 33.460938 762.875 31.683594 761.570312 30.367188 C 760.257812 29.050781 758.480469 28.308594 756.621094 28.304688 Z M 756.621094 28.308594 " fill-opacity="1" fill-rule="nonzero"/><path fill="#5da0fb" d="M 785.242188 43.5 C 783.621094 43.5 782.042969 43.019531 780.691406 42.117188 C 779.347656 41.21875 778.300781 39.941406 777.679688 38.441406 C 777.058594 36.945312 776.894531 35.300781 777.210938 33.710938 C 777.527344 32.125 778.3125 30.664062 779.453125 29.519531 C 780.597656 28.375 782.0625 27.597656 783.648438 27.28125 C 785.238281 26.964844 786.882812 27.128906 788.378906 27.75 C 789.882812 28.371094 791.160156 29.421875 792.054688 30.765625 C 792.960938 32.113281 793.433594 33.699219 793.433594 35.316406 C 793.433594 37.488281 792.5625 39.566406 791.027344 41.101562 C 789.492188 42.636719 787.410156 43.496094 785.242188 43.5 Z M 785.242188 28.308594 C 783.859375 28.308594 782.503906 28.722656 781.347656 29.492188 C 780.195312 30.261719 779.300781 31.355469 778.765625 32.636719 C 778.238281 33.917969 778.09375 35.328125 778.363281 36.6875 C 778.640625 38.042969 779.308594 39.292969 780.289062 40.273438 C 781.265625 41.253906 782.515625 41.921875 783.875 42.191406 C 785.238281 42.460938 786.648438 42.324219 787.925781 41.792969 C 789.210938 41.261719 790.304688 40.363281 791.074219 39.210938 C 791.84375 38.058594 792.253906 36.703125 792.253906 35.316406 C 792.253906 33.457031 791.515625 31.675781 790.199219 30.359375 C 788.886719 29.042969 787.101562 28.304688 785.242188 28.304688 Z M 785.242188 28.308594 " fill-opacity="1" fill-rule="nonzero"/><path fill="#5da0fb" d="M 756.621094 35.90625 C 756.523438 35.90625 756.425781 35.878906 756.339844 35.832031 C 756.199219 35.757812 756.101562 35.632812 756.054688 35.480469 C 756.015625 35.332031 756.027344 35.171875 756.101562 35.035156 L 763.699219 21.058594 C 763.71875 21.019531 763.738281 20.984375 763.765625 20.953125 C 763.785156 20.925781 763.808594 20.898438 763.835938 20.878906 C 763.941406 20.792969 764.066406 20.742188 764.207031 20.734375 L 779.128906 20.734375 C 779.242188 20.734375 779.359375 20.769531 779.453125 20.832031 C 779.550781 20.894531 779.625 20.984375 779.667969 21.089844 L 785.785156 35.085938 C 785.824219 35.175781 785.84375 35.273438 785.828125 35.371094 C 785.824219 35.46875 785.789062 35.5625 785.738281 35.644531 C 785.683594 35.726562 785.613281 35.796875 785.527344 35.839844 C 785.441406 35.886719 785.34375 35.910156 785.242188 35.910156 L 770.320312 35.910156 C 770.207031 35.910156 770.097656 35.875 769.996094 35.816406 C 769.90625 35.753906 769.824219 35.664062 769.78125 35.5625 L 764.160156 22.664062 L 757.140625 35.601562 C 757.089844 35.695312 757.015625 35.769531 756.925781 35.824219 C 756.832031 35.875 756.726562 35.90625 756.621094 35.90625 Z M 770.707031 34.726562 L 784.339844 34.726562 L 778.765625 21.90625 L 765.121094 21.90625 Z M 770.707031 34.726562 " fill-opacity="1" fill-rule="nonzero"/></svg>