<svg width="24" height="25" viewBox="0 0 24 25" fill="none" xmlns="http://www.w3.org/2000/svg">
<path d="M3.5 20.5C3.1 20.5 2.75 20.35 2.45 20.05C2.15 19.75 2 19.4 2 19V6C2 5.6 2.15 5.25 2.45 4.95C2.75 4.65 3.1 4.5 3.5 4.5H20.5C20.9 4.5 21.25 4.65 21.55 4.95C21.85 5.25 22 5.6 22 6V19C22 19.4 21.85 19.75 21.55 20.05C21.25 20.35 20.9 20.5 20.5 20.5H3.5ZM20.5 7.375L12.4 12.675C12.3333 12.7083 12.2708 12.7375 12.2125 12.7625C12.1542 12.7875 12.0833 12.8 12 12.8C11.9167 12.8 11.8458 12.7875 11.7875 12.7625C11.7292 12.7375 11.6667 12.7083 11.6 12.675L3.5 7.375V19H20.5V7.375ZM12 11.45L20.4 6H3.625L12 11.45ZM3.5 7.55V6.56708V6.58538V6V6.575V6.5522V7.55Z" fill="#9D9D9F"/>
</svg>
