<svg width="24" height="25" viewBox="0 0 24 25" fill="none" xmlns="http://www.w3.org/2000/svg">
<path d="M12.0022 12.25C12.4841 12.25 12.8958 12.0784 13.2375 11.7353C13.5792 11.3921 13.75 10.9796 13.75 10.4978C13.75 10.0159 13.5784 9.60417 13.2353 9.2625C12.8921 8.92083 12.4796 8.75 11.9978 8.75C11.5159 8.75 11.1042 8.92158 10.7625 9.26472C10.4208 9.60786 10.25 10.0204 10.25 10.5022C10.25 10.9841 10.4216 11.3958 10.7647 11.7375C11.1079 12.0792 11.5204 12.25 12.0022 12.25ZM12 22.5C9.31667 20.2167 7.3125 18.0958 5.9875 16.1375C4.6625 14.1792 4 12.3667 4 10.7C4 8.2 4.80417 6.20833 6.4125 4.725C8.02083 3.24167 9.88333 2.5 12 2.5C14.1167 2.5 15.9792 3.24167 17.5875 4.725C19.1958 6.20833 20 8.2 20 10.7C20 12.3667 19.3375 14.1792 18.0125 16.1375C16.6875 18.0958 14.6833 20.2167 12 22.5Z" fill="#9D9D9F"/>
</svg>
