<svg width="24" height="25" viewBox="0 0 24 25" fill="none" xmlns="http://www.w3.org/2000/svg">
<path d="M19.875 21.5C17.8417 21.5 15.8208 21 13.8125 20C11.8042 19 10 17.7 8.4 16.1C6.8 14.5 5.5 12.6958 4.5 10.6875C3.5 8.67917 3 6.65833 3 4.625C3 4.30833 3.10833 4.04167 3.325 3.825C3.54167 3.60833 3.80833 3.5 4.125 3.5H7.625C7.85833 3.5 8.0625 3.57917 8.2375 3.7375C8.4125 3.89583 8.525 4.10833 8.575 4.375L9.25 7.525C9.28333 7.75833 9.27917 7.97083 9.2375 8.1625C9.19583 8.35417 9.10833 8.51667 8.975 8.65L6.475 11.175C7.40833 12.725 8.45417 14.075 9.6125 15.225C10.7708 16.375 12.0833 17.35 13.55 18.15L15.925 15.7C16.0917 15.5167 16.2833 15.3875 16.5 15.3125C16.7167 15.2375 16.9333 15.225 17.15 15.275L20.125 15.925C20.375 15.975 20.5833 16.1 20.75 16.3C20.9167 16.5 21 16.7333 21 17V20.375C21 20.6917 20.8917 20.9583 20.675 21.175C20.4583 21.3917 20.1917 21.5 19.875 21.5Z" fill="#9D9D9F"/>
</svg>
